PathFileType	4	(X/Y/Z)	Walk10.trc
DataRate	CameraRate	NumFrames	NumMarkers	Units	OrigDataRate	OrigDataStartFrame	OrigNumFrames
200.000000	200.000000	4	60	mm	200.000000	352	568
Frame#	Times		LFHD		RFHD		CLAV		STRN		LASI		RASI		RACR1		RUA1		RElbow		RFA1		RWRR		RWRU		RCAR		LACR1		LUA1		LElbow		LFA1		LWRR		LWRU		LCAR		RTH2		RTB1		RTB2		LTH1		LTH3		LTH2		LLFC		LMFC		LTB1		LTB2		LTB4		LMT1		RTB4		LTB3		RTH3		RTB3		LToe		RMFC		LTH4		RElbowM		RTH4		RToe		RTH1		RMT1		RMMAL		RLFC		LBHD		RCAL		RBack		LMT5		RLMAL		RPSI		LMMAL		T10		C7		LPSI		LLMAL		LElbowM		LCAL		RBHD
			X1	Y1	Z1	X2	Y2	Z2	X3	Y3	Z3	X4	Y4	Z4	X5	Y5	Z5	X6	Y6	Z6	X7	Y7	Z7	X8	Y8	Z8	X9	Y9	Z9	X10	Y10	Z10	X11	Y11	Z11	X12	Y12	Z12	X13	Y13	Z13	X14	Y14	Z14	X15	Y15	Z15	X16	Y16	Z16	X17	Y17	Z17	X18	Y18	Z18	X19	Y19	Z19	X20	Y20	Z20	X21	Y21	Z21	X22	Y22	Z22	X23	Y23	Z23	X24	Y24	Z24	X25	Y25	Z25	X26	Y26	Z26	X27	Y27	Z27	X28	Y28	Z28	X29	Y29	Z29	X30	Y30	Z30	X31	Y31	Z31	X32	Y32	Z32	X33	Y33	Z33	X34	Y34	Z34	X35	Y35	Z35	X36	Y36	Z36	X37	Y37	Z37	X38	Y38	Z38	X39	Y39	Z39	X40	Y40	Z40	X41	Y41	Z41	X42	Y42	Z42	X43	Y43	Z43	X44	Y44	Z44	X45	Y45	Z45	X46	Y46	Z46	X47	Y47	Z47	X48	Y48	Z48	X49	Y49	Z49	X50	Y50	Z50	X51	Y51	Z51	X52	Y52	Z52	X53	Y53	Z53	X54	Y54	Z54	X55	Y55	Z55	X56	Y56	Z56	X57	Y57	Z57	X58	Y58	Z58	X59	Y59	Z59	X60	Y60	Z60

352	1.76	262.26	1625	-22.532	264.04	1628.3	76.679	266.84	1368.5	41.612	334.48	1212.6	35.931	191.89	960.2	-153.53	251.11	940.98	210.06	147.63	1450.6	211.73	92.867	1288.1	324.95	73.55	1137.4	370.34	73.356	981.53	384.36	70.83	860.3	315	61.765	867.2	396.02	78.677	777.44	364.02	145.98	1431	-139.85	156.69	1263.9	-236.3	203.11	1112.3	-299.28	291.98	1006.6	-309.54	395.36	929.02	-246.49	370.57	892.47	-306.51	456.13	870.14	-280.09	307.72	717.91	220.66	426.28	403.33	147.59	415.29	311.6	198.35	79.284	730.46	-178.12	50.623	562.52	-161.27	121.85	638.83	-156.24	9.3921	484.5	-157.69	38.013	463.61	-3.6187	6.1067	339.44	-94.402	-76.473	287.4	-128.24	-47.459	277.41	-74.09	-165.01	33.57	-42.023	435.14	317.14	140.38	-108.79	217.84	-56.966	304.99	612.72	225.5	443.67	231.75	133.28	-119.77	24.072	-83.48	323.73	500.73	67.052	64.755	647.57	-169.82	17.099	1078.2	269.56	260.84	685.59	237.41	600.76	70.622	144.22	214.85	758.62	248.75	564.83	54.23	109.82	431.13	91.24	75.07	336.06	504.55	220.58	111.74	1547.3	-29.066	344.35	40.66	108.27	3.1434	1332.1	149.9	-231.96	39.134	-111.27	394.87	73.386	157.37	-30.696	992.38	90.782	-246.51	140.24	30.901	7.609	1131.9	48.114	69.425	1447	40.282	-33.822	1008.1	7.3149	-277.33	146.76	-53.748	160.76	1027.3	-215.92	-331.61	151.65	5.7734	129.12	1557.7	118.38
353	1.765	268.89	1625.1	-21.08	270.74	1628.4	78.128	273.85	1368.6	43.038	341.65	1212.9	37.218	199.7	960.29	-151.72	258.45	941.6	210.78	154.65	1450.3	213.28	100.26	1287.4	326.21	81.223	1136.7	371.42	81.252	980.8	385.32	78.798	859.63	315.85	69.846	866.46	396.89	86.906	776.79	364.82	152.91	1431.3	-138.38	162.71	1264	-234.83	208.23	1112.1	-297.7	296.63	1006.1	-308.05	399.96	928.23	-245.23	374.8	891.61	-305.05	460.42	869.14	-278.94	314.94	718.63	221.67	432.56	402.72	148.29	420.35	311.04	198.87	87.185	730.32	-177.66	59.085	562.22	-161.61	130.04	638.74	-156.07	17.9	484.38	-158.38	46.745	462.93	-4.2301	13.139	339.43	-95.342	-70.303	288.73	-128.97	-41.304	278.14	-74.95	-164.53	33.393	-41.585	440.21	316.42	140.86	-103.36	219.42	-57.748	312.51	613.45	226.69	447.49	230.94	133.56	-120.27	23.933	-83.354	331.68	502.07	67.892	72.965	647.35	-169.78	24.823	1077.5	270.65	268.15	686.21	238.43	602.47	66.958	143.65	221.93	759.14	249.66	566	51.174	109.46	432.6	90.735	75.01	343.48	504.83	221.67	118.45	1547.3	-27.486	345.12	41.393	108.39	10.184	1331.9	151.31	-230.74	40.864	-110.85	396.3	73.283	157.38	-23.573	992.3	91.514	-241.75	143.64	30.373	14.592	1131.9	48.783	76.465	1447.1	41.9	-26.655	1007.7	7.6997	-272.86	150.8	-54.027	166.12	1027.4	-213.97	-326.32	157.11	5.7088	136	1557.6	119.95
354	1.77	275.5	1625.4	-19.638	277.43	1628.6	79.568	280.83	1368.8	44.443	348.75	1213.2	38.482	207.49	960.44	-149.9	265.74	942.34	211.56	161.66	1450.1	214.8	107.68	1286.9	327.44	88.935	1136.1	372.48	89.224	980.18	386.27	86.883	859.06	316.72	78.031	865.82	397.77	95.278	776.24	365.65	159.85	1431.6	-136.91	168.74	1264.2	-233.38	213.27	1112	-296.12	301.14	1005.6	-306.57	404.39	927.46	-243.96	378.86	890.77	-303.6	464.52	868.11	-277.79	322.07	719.28	222.73	438.68	402.08	148.9	425.25	310.44	199.29	95.252	730.23	-177.21	67.82	561.95	-162	138.44	638.73	-155.92	26.729	484.28	-159.16	55.83	462.25	-4.9129	20.515	339.49	-96.386	-63.791	290.15	-129.78	-34.777	278.95	-75.913	-163.93	33.264	-41.122	445.11	315.7	141.24	-97.55	221.07	-58.62	319.84	614.12	227.84	451.14	230.14	133.71	-120.7	23.749	-83.246	339.72	503.39	68.595	81.397	647.17	-169.78	32.605	1076.8	271.72	275.34	686.8	239.46	604.01	63.586	142.95	228.97	759.68	250.59	567.03	48.346	108.98	433.93	90.268	74.853	350.7	505.01	222.69	125.13	1547.3	-25.914	345.83	42.083	108.47	17.198	1331.9	152.69	-229.28	42.756	-110.42	397.67	73.221	157.33	-16.48	992.27	92.227	-236.57	147.11	29.794	21.548	1132	49.45	83.492	1447.3	43.481	-19.506	1007.4	8.0572	-267.98	154.94	-54.344	171.42	1027.6	-211.98	-320.54	162.69	5.6261	142.86	1557.6	121.51
355	1.775	282.1	1625.6	-18.21	284.1	1628.8	80.994	287.78	1369	45.823	355.78	1213.6	39.718	215.24	960.67	-148.08	272.97	943.2	212.4	168.64	1450	216.28	115.1	1286.4	328.66	96.684	1135.6	373.51	97.269	979.67	387.21	95.082	858.59	317.59	86.318	865.3	398.65	103.79	775.81	366.5	166.78	1432	-135.46	174.76	1264.4	-231.93	218.23	1112	-294.55	305.52	1005.2	-305.09	408.66	926.68	-242.7	382.75	889.95	-302.16	468.43	867.04	-276.64	329.09	719.82	223.82	444.6	401.42	149.41	429.99	309.81	199.59	103.48	730.19	-176.78	76.82	561.71	-162.46	147.05	638.79	-155.79	35.871	484.22	-160.02	65.268	461.56	-5.6635	28.234	339.61	-97.525	-56.931	291.64	-130.67	-27.873	279.82	-76.972	-163.15	33.205	-40.646	449.82	314.97	141.5	-91.366	222.79	-59.576	326.91	614.66	228.94	454.62	229.36	133.72	-121.02	23.518	-83.164	347.78	504.63	69.164	90.043	647.03	-169.83	40.436	1076.3	272.78	282.36	687.32	240.47	605.41	60.488	142.13	235.93	760.19	251.51	567.92	45.733	108.39	435.11	89.82	74.595	357.7	505.08	223.61	131.79	1547.5	-24.355	346.49	42.726	108.51	24.183	1331.9	154.07	-227.54	44.814	-109.99	398.97	73.191	157.2	-9.4207	992.27	92.928	-230.95	150.62	29.168	28.476	1132.1	50.126	90.491	1447.6	45.023	-12.373	1007.1	8.4085	-262.69	159.16	-54.699	176.62	1027.8	-209.96	-314.26	168.34	5.5229	149.71	1557.7	123.05
